<?xml version="1.0" encoding="UTF-8" standalone="no"?>
<!-- Created with Inkscape (http://www.inkscape.org/) -->

<svg
   width="40.905514mm"
   height="60.000473mm"
   viewBox="0 0 40.905514 60.000473"
   version="1.1"
   id="svg14460"
   sodipodi:docname="ToggleThemeIcon.svg"
   inkscape:version="1.2.1 (9c6d41e410, 2022-07-14)"
   xmlns:inkscape="http://www.inkscape.org/namespaces/inkscape"
   xmlns:sodipodi="http://sodipodi.sourceforge.net/DTD/sodipodi-0.dtd"
   xmlns="http://www.w3.org/2000/svg"
   xmlns:svg="http://www.w3.org/2000/svg">
  <sodipodi:namedview
     id="namedview10"
     pagecolor="#ffffff"
     bordercolor="#000000"
     borderopacity="0.25"
     inkscape:showpageshadow="2"
     inkscape:pageopacity="0.0"
     inkscape:pagecheckerboard="0"
     inkscape:deskcolor="#d1d1d1"
     inkscape:document-units="mm"
     showgrid="false"
     inkscape:zoom="2.7172708"
     inkscape:cx="-106.17271"
     inkscape:cy="101.94052"
     inkscape:window-width="3440"
     inkscape:window-height="1377"
     inkscape:window-x="-8"
     inkscape:window-y="405"
     inkscape:window-maximized="1"
     inkscape:current-layer="svg14460" />
  <defs
     id="defs14457">
    <clipPath
       clipPathUnits="userSpaceOnUse"
       id="clipPath15098">
      <circle
         style="display:none;fill:#ffffff;fill-opacity:1;stroke-width:0.215712;-inkscape-stroke:none;paint-order:markers fill stroke;stop-color:#000000"
         id="circle15100"
         cy="50"
         cx="28.227709"
         r="46.601994" />
      <path
         id="lpe_path-effect15102"
         style="fill:#ffffff;fill-opacity:1;stroke-width:0.215712;-inkscape-stroke:none;paint-order:markers fill stroke;stop-color:#000000"
         class="powerclip"
         d="M -5,-5 H 105 V 105 H -5 Z M 74.829702,50 A 46.601994,46.601994 0 0 0 28.227709,3.3980064 46.601994,46.601994 0 0 0 -18.374285,50 46.601994,46.601994 0 0 0 28.227709,96.601994 46.601994,46.601994 0 0 0 74.829702,50 Z" />
    </clipPath>
  </defs>
  <path
     id="path467"
     style="fill:#000000;stroke-width:0.264583"
     d="M 10.905277,0 A 30,30 0 0 0 2.093929,1.324984 30,30 0 0 1 21.187854,29.270048 30,30 0 0 1 0,57.945301 30,30 0 0 0 10.905277,60.000472 30,30 0 0 0 40.905513,30.000236 30,30 0 0 0 10.905277,0 Z" />
</svg>
