<?xml version="1.0" encoding="UTF-8" standalone="no"?>
<!-- Created with Inkscape (http://www.inkscape.org/) -->

<svg
   width="100mm"
   height="100mm"
   viewBox="0 0 100 100"
   version="1.1"
   id="svg14460"
   xmlns="http://www.w3.org/2000/svg"
   xmlns:svg="http://www.w3.org/2000/svg">
  <defs
     id="defs14457">
    <clipPath
       clipPathUnits="userSpaceOnUse"
       id="clipPath15098">
      <circle
         style="display:none;fill:#ffffff;fill-opacity:1;stroke-width:0.215712;-inkscape-stroke:none;paint-order:markers fill stroke;stop-color:#000000"
         id="circle15100"
         cy="50"
         cx="28.227709"
         r="46.601994"
         d="M 74.829702,50 A 46.601994,46.601994 0 0 1 28.227709,96.601994 46.601994,46.601994 0 0 1 -18.374285,50 46.601994,46.601994 0 0 1 28.227709,3.3980064 46.601994,46.601994 0 0 1 74.829702,50 Z" />
      <path
         id="lpe_path-effect15102"
         style="fill:#ffffff;fill-opacity:1;stroke-width:0.215712;-inkscape-stroke:none;paint-order:markers fill stroke;stop-color:#000000"
         class="powerclip"
         d="M -5,-5 H 105 V 105 H -5 Z M 74.829702,50 A 46.601994,46.601994 0 0 0 28.227709,3.3980064 46.601994,46.601994 0 0 0 -18.374285,50 46.601994,46.601994 0 0 0 28.227709,96.601994 46.601994,46.601994 0 0 0 74.829702,50 Z" />
    </clipPath>
  </defs>
  <g
     id="layer1">
    <path
       style="fill:#000000;fill-opacity:1;stroke-width:0.348987;-inkscape-stroke:none;paint-order:markers fill stroke;stop-color:#000000"
       id="path14516"
       clip-path="url(#clipPath15098)"
       d="M 100,50 A 50,50 0 0 1 50,100 50,50 0 0 1 0,50 50,50 0 0 1 50,0 50,50 0 0 1 100,50 Z" />
    <ellipse
       style="fill:#aeaeae;stroke-width:0.264999;-inkscape-stroke:none;paint-order:markers fill stroke;stop-color:#000000"
       id="path14518"
       cx="65.212753"
       cy="34.486126"
       rx="0.28919181"
       ry="0.21689387" />
  </g>
</svg>
